<svg xmlns="http://www.w3.org/2000/svg" version="1.1" xmlns:xlink="http://www.w3.org/1999/xlink" xmlns:svgjs="http://svgjs.dev/svgjs" width="1000" height="1125" viewBox="0 0 1000 1125"><g transform="matrix(1,0,0,1,1.7053025658242404e-13,0)"><svg viewBox="0 0 320 360" data-background-color="#77d4fc" preserveAspectRatio="xMidYMid meet" height="1125" width="1000" xmlns="http://www.w3.org/2000/svg" xmlns:xlink="http://www.w3.org/1999/xlink"><g id="tight-bounds" transform="matrix(1,0,0,1,-5.684341886080802e-14,0)"><svg viewBox="0 0 320 360" height="360" width="320"><g><svg></svg></g><g><svg viewBox="0 0 320 360" height="360" width="320"><g><path xmlns="http://www.w3.org/2000/svg" d="M85.508 32.884c0-1.117 0.558-2.233 1.675-2.233 1.117 0 2.233 0.558 2.234 2.233 0.558 0 1.675 0 2.233-0.558 2.233 0 4.467-0.558 6.141 0 1.675 0.558 2.792 0.558 4.467 1.117 1.675 0.558 2.792 0 3.908-0.559 2.233-0.558 3.908-1.675 6.141-2.233 1.117-0.558 1.675-0.558 2.792-0.558 1.117-0.558 2.233-0.558 3.908-1.117 2.792-0.558 5.583-1.117 7.817-2.233 2.233-1.117 4.467-1.117 6.699-1.675 1.117 0 1.675-0.558 2.792-1.117 0.558 0 0.558-0.558 1.116-1.116 1.117-0.558 1.675-1.117 2.792-0.559 0.558 0.558 1.675 0.558 2.233 0h0.559c3.35 0 6.7-0.558 10.608 0 0.558 0 1.117 0 1.116 0 1.675-1.117 3.908-1.117 6.142-1.116 0.558 0 1.675 0 2.233 0h0.558c2.233 0 4.467 0 6.142 0.558 1.675 0 2.792 0.558 4.466 1.117 1.675 0 2.792 0 4.467 0.558 1.117 0 2.233 0 3.35 0 0.558 0 1.117 0 1.116 0 2.233 0.558 4.467 0.558 6.7 0.558 1.675 0.558 3.35 1.117 5.583 1.117 0.558 0 1.117 0 1.675 0 0.558 0 1.117 0.558 1.675 0.558l0.558 0.559c2.233 0 3.908 1.117 6.142 1.116 0.558 0 1.675 0 2.233 0.559 1.675 1.117 3.908 1.675 6.141 1.675 1.117 0 1.675 0.558 2.234 1.116 1.675 0.558 2.792 1.117 4.466 1.675 1.117 0.558 2.233 0 3.35 0.558 1.675 0.558 3.908 1.117 5.583 2.792 1.117 1.117 2.233 1.117 3.908 2.233 0.558 0 1.117 0.558 1.675 1.117 1.675 1.117 3.35 2.233 5.025 2.791 0.558 0 1.117 0.558 1.675 0.559 1.675 1.117 3.35 2.792 5.583 3.908 1.117 0.558 1.675 1.117 2.792 1.675h0.558c1.675 1.675 3.908 2.792 5.583 4.466 1.675 1.675 2.792 2.792 5.025 3.909 0 0 0 0 0 0.558 0.558 1.117 1.117 1.675 2.233 2.233 1.117 0.558 1.675 1.117 2.234 1.675 1.675 1.117 3.35 2.233 4.466 3.35 0.558 0.558 1.117 1.117 2.233 2.233 0.558 0.558 1.117 1.117 1.675 1.117 2.233 0.558 3.35 2.233 5.025 3.908 1.117 1.117 2.792 2.792 3.908 3.908 0.558 0.558 1.117 1.675 1.675 2.792 1.117 3.35 2.792 6.7 4.467 9.491 0 0 0 0.558 0.558 1.117v0.558c1.117 1.117 1.675 2.792 2.792 3.908 0.558 0.558 0.558 1.117 1.116 1.675 1.117 1.675 1.675 3.908 2.792 5.583 1.675 2.792 2.792 5.583 3.908 8.375v0.558c0.558 1.117 1.117 2.233 1.675 3.908 0 1.117 1.117 2.233 1.675 3.909 0.558 2.792 2.233 5.583 2.791 8.933 0 0.558 0.558 1.117 0.559 2.233 0.558 1.675 1.117 3.35 1.675 5.025 0 0.558 0.558 1.117 1.116 1.675 1.117 1.117 1.117 2.233 1.117 3.35-0.558 2.233 0 4.467 0.558 6.699 0 0.558 0 1.117 0 2.234 0.558 2.233 1.117 5.025 1.117 7.258 0 0.558 0 1.675 0 2.233 0 1.675 0.558 3.35 1.675 5.025 0 0.558 0.558 0.558 0.558 0.558 0.558 0.558 1.117 1.675 1.675 2.233 0.558 0.558 0.558 0.558 1.117 1.117 1.117 1.117 1.675 2.233 1.675 3.908 0 0.558-0.558 1.675-0.559 2.233 0 0.558 0 1.675 0.559 2.234 0.558 0.558 0.558 1.117 0.558 1.675 0 0.558-0.558 1.117-1.117 1.116v0c-0.558 1.675-2.792 2.233-3.35 3.908-0.558 2.233-1.117 4.467-1.674 6.7-0.558 1.675-0.558 2.792-0.559 4.467 0 1.675-0.558 2.792-0.558 4.466-0.558 2.233-1.117 4.467-1.675 6.7 0 1.117-0.558 2.233-0.558 3.35 0.558 0.558 1.117 1.117 1.675 1.116 1.117 1.117 2.233 2.233 3.349 3.35 0.558 0.558 0.558 1.117 0 1.117-0.558 0.558-1.117 0.558-1.674 0.558-0.558-0.558-1.675-1.117-2.234-1.116-0.558-0.558-1.675-1.117-2.791-0.559 0 1.117-0.558 2.233-0.559 2.792-0.558 1.117-1.117 2.792-1.116 3.908-0.558 2.233-1.675 3.908-2.233 6.142-1.117 2.792-2.233 5.025-3.35 7.258-0.558 1.117-1.117 2.233-1.675 3.35v0c0 1.675-1.675 3.35-2.234 5.024-1.117 2.233-2.233 4.467-3.349 7.258-0.558 1.117-1.117 2.233-1.675 2.792-1.117 2.792-2.233 5.025-3.909 7.258-1.117 1.675-2.233 2.792-3.349 3.35-1.117 1.117-2.233 2.233-3.35 3.35-0.558 0.558-1.117 1.117-1.675 1.675-0.558 0.558-0.558 0.558-1.117 1.116-1.117 1.675-2.792 2.792-3.908 4.467-1.117 1.117-1.675 2.233-3.35 3.35-1.117 1.117-2.233 2.792-3.908 3.35-0.558 0.558-1.117 1.675-1.675 2.233-0.558 0.558-1.117 1.675-1.675 2.233 0 1.117 0.558 2.233 0.558 2.792 0 1.675-1.675 2.233-2.791 1.116-1.675-1.117-1.675-1.117-3.35 0-1.675 1.117-3.35 2.792-5.583 3.35-0.558 0-0.558 0.558-1.117 0.559-1.117 0.558-1.675 1.675-2.792 2.233-1.117 1.117-2.792 1.675-3.908 2.791-0.558 0.558-1.117 0.558-1.675 1.117-1.675 1.117-3.35 1.675-5.024 3.35-0.558 0.558-1.117 0.558-1.675 1.117 0 0.558 0 0.558 0 1.116 0 1.117-1.117 2.233-2.792 1.675-1.675-0.558-2.792 0-4.466 0-1.675 0.558-3.35 1.675-5.025 2.233-0.558 0-1.117 0.558-1.675 1.117-1.675 1.117-3.35 1.675-5.025 2.233-1.117 0-2.233 1.117-3.35 1.117-0.558 0-1.117 0.558-1.675 0.558h-0.558c-2.233 1.675-4.467 2.792-6.7 4.467-0.558 0-0.558 0.558-1.117 1.116-0.558 1.117-1.117 1.675-2.233 1.675-2.792 0-3.908 2.233-3.35 4.467 0 0.558 0.558 1.117 0.559 1.675 0.558 1.117 0 2.233-0.559 2.791-0.558 0.558-2.233 0.558-2.791-0.558-1.117-1.117-1.675-2.233-2.234-3.908-0.558-1.117-1.675-2.233-2.791-2.792-1.117-0.558-2.233-0.558-3.35 0-0.558 0-0.558 0.558-1.117 0.558-1.117 1.117-2.792 1.675-4.466 1.117-0.558 0-1.675 0-1.675 0.558-0.558 0.558-0.558 1.675 0 2.234 1.117 1.117 0.558 2.233 0.558 3.908 0 2.233-1.675 3.35-3.908 2.233-0.558-0.558-1.117-0.558-1.675-1.117-0.558 0-0.558-0.558-0.558-1.116-0.558-0.558-0.558-1.675-1.117-2.792-1.117 0.558-2.233 0.558-3.35 1.117-0.558 0-1.117 0.558-1.675 0.558-1.675 0-2.233 0-2.791-1.675-0.558-1.675-1.675-1.675-2.792-2.233-2.233-0.558-5.025-0.558-7.258-1.675h-0.558c-2.233-1.675-4.467-1.675-7.258-1.675-1.675 0-3.35 0.558-5.025 0.558-1.675 0-2.792 0.558-3.908 1.675-0.558 0.558-1.117 1.117-1.675 1.117-0.558-0.558-0.558-1.117-1.117-1.675v-0.558c0-0.558-0.558-1.117-1.116-0.559-1.117 0.558-2.233-0.558-3.35-1.116-0.558-0.558-1.675-1.675-1.675-2.792-0.558-0.558-1.117-1.117-1.675-1.116-1.117 0-2.792-0.558-3.908-0.559-0.558 0-1.117 0-1.117-0.558-0.558-0.558-1.117-0.558-2.233-0.558-0.558 0-0.558-0.558-1.117-0.559 1.117 1.117 1.675 2.233 2.233 3.35 0 0.558 0.558 0.558 0.559 1.117 0.558 1.117 0 1.675-1.675 1.675-1.117 0-1.117 0-1.675 0.558 0 1.117 0 1.675 0 2.792 0 0.558 0 1.117-1.117 1.675 0 0-0.558 0-0.558 0.558-0.558 0.558-0.558 1.117 0 1.675 1.675 1.117 2.792 1.675 4.466 2.233 1.675 0 1.675 1.117 2.234 2.233 0.558 1.117 0 1.675-0.559 2.792-1.117 1.117-2.233 2.233-3.35 3.35-1.675 0.558-2.792 2.233-4.466 2.233-1.117 0-2.233-0.558-2.792-1.675-0.558-2.792-0.558-5.025 0.559-7.816 0-0.558 0.558-1.117 0-1.675-5.025 0-5.025-1.117-5.025-1.675 0-1.117 0.558-1.675 0.558-2.792 0.558-1.117 0-1.675-1.675-2.233-0.558 0-1.117 0-1.675 0-0.558 0-0.558-0.558-1.675-0.558 1.117-0.558 1.675-0.558 2.792-1.117-0.558-2.233-1.117-3.908-2.792-5.025-0.558-0.558-1.117-1.117-1.116-2.233 0-1.675-1.117-2.792-1.675-3.908-1.117-1.675-3.35-2.233-5.025-2.233-1.675-0.558-2.792-0.558-4.467-1.117-1.675-0.558-3.35-2.233-5.024-2.792-0.558-0.558-1.117-1.117-2.234-1.674-2.233-1.117-3.908-2.792-5.583-4.467-1.117-0.558-1.675-1.675-2.791-2.233-1.117-1.117-1.675-2.233-2.792-2.792-1.117-1.117-2.233-2.233-3.908-3.35-1.675-1.117-2.792-2.792-4.467-4.466-1.117-1.675-2.792-2.792-4.466-3.908-0.558 0-1.117 0-1.675 0-0.558 0-1.117 0.558-1.675 0.558-1.675 0.558-2.792 1.675-4.467 2.233 0.558-0.558 0.558-0.558 0-1.675-0.558-0.558-1.117-1.117-1.674-1.116-1.117 0-2.233 0-3.35 0-2.233 0-4.467 0.558-6.7 0.558-1.675 0-3.908 0.558-5.583 1.117 0.558 1.117 0.558 1.675 1.116 2.791-1.117 0.558-2.233 0.558-3.35 0.558-0.558 0-1.675 0.558-2.233 1.117-0.558 0-0.558 0.558-1.116 0-1.117-0.558-2.233 0-3.35 0.558h-0.559c0 0 0-0.558 0.559-0.558 0.558-0.558 1.117-1.117 1.675-1.675 0.558-0.558 1.117-0.558 2.233-1.117-0.558-0.558-0.558-1.117-0.558-1.116-0.558-0.558-1.117-0.558-1.675 0-0.558 0.558-1.117 1.117-1.675 1.675-0.558 0.558-1.117 0.558-1.675 0-0.558-0.558-0.558-1.117 0-1.675 0-0.558 0.558-1.117 1.116-1.675 0.558-0.558 0.558-1.117 1.117-1.675-1.117-1.117-1.675-2.233-2.792-2.792-1.675-1.117-3.35-2.792-4.466-4.466-1.117-2.233-2.792-3.908-5.025-5.025-0.558-0.558-1.117-1.117-1.675-1.675-0.558-0.558-0.558-0.558-1.116-1.117-1.675 0.558-2.792 1.675-4.467 2.234-0.558 0-0.558 0.558-1.117 1.116-0.558 1.117-1.675 1.117-2.791 1.117-0.558 0-1.117-0.558-0.558-1.117 0.558-1.117 1.117-2.233 2.791-1.675 0 0 0.558 0 0.558-0.558 1.117-1.117 2.233-2.792 3.909-3.908-0.558-1.675-1.675-2.792-2.234-3.908-0.558-0.558-0.558-1.117-0.558-2.234 0-0.558 0-0.558-0.558-1.116 0 0-0.558 0-1.117 0.558-0.558 0.558-1.675 1.117-2.791 0 0-0.558 0-1.117 0.558-1.675l0.558-0.558c1.675-0.558 1.675-2.233 1.675-3.908v-0.559c-0.558-1.117-0.558-1.675 0.558-2.791 1.675-1.117 3.35-3.35 3.909-5.025 0.558-1.117 1.675-1.675 2.791-2.792 1.117-1.117 2.233-2.233 2.792-3.908h0.558c2.233 0.558 2.792-1.117 3.908-2.791 0-0.558 0-1.117 0.559-1.117 1.117-1.117 1.117-2.233 0.558-3.908 0-0.558-0.558-1.675-0.558-2.233 0-0.558 0-0.558-0.559-1.117-1.675-1.117-1.675-2.233 0-3.35 1.117-0.558 1.117-1.675 1.675-2.233 0.558-1.117 0.558-2.233 0.559-3.908-0.558-1.675-0.558-3.908-1.117-5.583-0.558-2.233-1.117-5.025-1.675-7.259 0-0.558 0-0.558 0-1.116 0-1.675 0-2.792-0.558-4.467-0.558-0.558-0.558-1.675-0.559-2.233-0.558-1.675-1.117-2.792-2.791-3.35-1.675-1.117-3.908-1.675-5.583-2.791-0.558-0.558-1.117 0-1.675 0.558-0.558 1.117-1.675 2.233-2.234 3.35-0.558 0.558-1.117 1.675-1.675 2.791-1.117 1.117-3.35 2.233-5.024 0.559-0.558-1.117-1.117-1.675 0-2.792 1.117-1.675 2.233-3.35 3.908-4.466 0.558-0.558 1.117-1.675 1.675-2.234 0.558-1.117 0.558-2.233 0.558-3.35-0.558-2.233-1.117-4.467-1.117-7.258 0-2.792 0-5.025 0.559-7.816 0.558-1.117 0.558-2.792 1.116-3.908 0-0.558 0.558-1.675 1.117-2.233 1.117-1.117 2.233-2.233 2.792-3.909 0.558-1.675 1.675-3.35 1.675-5.024 0-0.558 0.558-1.117 0.558-1.675 0-0.558 0.558-1.675 0.558-2.234-0.558-1.675 0-2.792 0.558-3.908 0.558-1.117 1.117-2.792 1.675-3.908 1.117-2.233 1.117-5.025 3.35-7.258 0.558-1.117 1.117-2.233 1.675-3.35 0.558-2.233 1.675-3.908 2.792-5.583 0.558-0.558 0.558-0.558 0.558-1.117 0.558-1.675 1.675-3.35 2.792-5.025 1.117-1.675 1.117-3.35 1.675-5.024 0-0.558 0-1.117 0.558-1.675 1.675-1.675 1.117-3.908 0.558-6.142-1.117-2.792-1.675-5.583-1.116-8.374 0-0.558 0-1.117 0.558-1.117 0.558-1.117 0.558-1.675 1.117-2.792v-0.558c1.117-1.117 2.233-2.792 3.908-3.35 2.233-1.117 4.467-1.675 7.258-2.233 2.233 0 4.467-1.117 6.141-3.35 0-0.558 0.558-0.558 1.117-1.117l0.558-0.558c0.558-1.117 1.117-1.675 1.675-2.233 1.117-1.117 2.233-2.792 3.35-3.908 1.117-1.117 2.233-2.792 3.908-4.467l0.559-0.558c1.117-1.117 2.233-2.233 3.349-2.792 1.117-1.117 2.233-2.233 3.35-3.35 1.117-1.117 1.675-2.233 2.792-3.35 1.117-0.558 2.233-1.675 3.35-2.791 1.117-1.117 2.233-2.233 2.791-2.792 1.117-1.117 2.792-2.233 3.909-2.791 1.117-0.558 2.233-1.117 2.791-2.792 0.558-1.675 1.117-2.792 1.675-4.466 0-1.117 0.558-2.233 1.117-3.35 0.558 0 1.117 0 2.233-0.558-0.558-0.558-1.117-0.558-1.117-1.117 0-0.558 0.558-1.117 0.559-1.117 0-0.558 0.558-1.117 0.558-1.675 0 0 0.558 0 0.558-0.558 0 0 0.558 0 0.559-0.558-1.117 0.558-1.675 0-2.234-0.559 0.558 0.558 1.117 0.558 2.234 1.117 0 0 0.558 0 0.558-0.558 0-0.558 0-1.117 0-1.117 0 0-0.558 0-1.117 0-0.558 0-1.117 0.558-1.675 0.558zM182.097 295.292c0-0.558-0.558-0.558-0.559-1.117-0.558-1.117 0-1.675 0.559-2.233 0.558-0.558 1.117-0.558 2.233-0.558 1.117 0.558 1.675 1.117 1.675 2.233 0 0.558 0 1.675 0 2.233 0.558 2.233 0.558 2.233 2.791 2.233 1.117 0 2.233 0 3.35 0 2.233-0.558 4.467-1.675 6.7-2.233 2.233-0.558 4.467-1.117 6.7-1.675 0.558 0 1.117 0 2.233 0 2.233 0.558 3.908 0 5.583-1.117 0.558-0.558 1.675-0.558 2.233-1.116 1.117-0.558 2.233-0.558 3.35-1.117 2.792-1.675 5.583-2.792 7.817-4.466 1.675-1.117 3.35-2.233 5.024-3.35 1.675-1.117 3.35-2.233 5.025-3.35 1.117-0.558 2.792-1.675 3.908-2.792 2.233-1.675 3.908-3.35 6.142-4.466 1.117-0.558 1.675-1.117 2.233-1.675 1.117-0.558 1.675-1.675 2.792-2.233 0.558-0.558 1.117-1.117 2.233-1.675 0.558-0.558 0.558-0.558 0.558-1.117 1.675-1.117 3.35-3.35 4.467-5.025 1.117-1.117 2.233-2.233 3.35-3.908 1.675-1.675 2.792-3.908 4.466-6.141 1.117-1.117 2.233-2.792 2.792-3.909 1.117-2.233 2.233-4.467 3.908-6.141v-0.558c1.117-2.233 2.233-4.467 3.35-6.7 1.675-2.792 2.792-6.141 4.466-8.933 0.558-1.117 1.117-2.233 1.117-3.35 1.117-2.233 1.675-4.467 2.233-6.7 0-0.558 0-0.558 0.559-1.116 1.675-3.35 2.792-6.7 3.349-10.608 0.558-2.233 1.117-4.467 1.675-6.7 1.117-3.35 1.117-6.141 1.675-9.491 0.558-2.233 0.558-5.025 0.559-7.258 0.558-3.35 0.558-7.258 0-10.608 0-2.792-0.558-6.141-0.559-8.933 0-2.792-0.558-5.025-1.116-7.817-0.558-2.792-1.117-5.025-1.675-7.816-1.117-2.233-1.675-4.467-2.234-7.258-0.558-2.233-1.675-3.908-1.674-6.142 0-1.675-0.558-3.35-2.234-3.908-1.675-0.558-2.792-1.117-4.466-2.233-3.35-2.233-5.025-5.025-4.467-8.375 0-1.675 0.558-3.908 1.117-5.583 0.558-1.675 1.117-3.35 0-4.467-0.558-1.675-1.675-2.792-2.233-3.908-1.117-1.675-1.675-2.792-2.792-3.908-1.117-2.233-2.233-4.467-3.908-6.141-2.233-2.792-3.908-5.583-6.7-7.817l-0.558-0.558c-1.675-2.233-3.35-4.467-5.583-6.142-1.117-1.117-2.233-2.233-3.35-2.791-0.558-0.558-1.117-1.117-2.233-1.675-1.675-1.117-3.35-1.675-4.467-2.792-1.675-1.675-3.908-2.792-5.583-3.908 0 0-0.558 0-0.558-0.558-2.233-1.117-3.908-1.675-6.142-2.792-2.233-1.117-4.467-1.675-6.7-1.675-0.558 0-0.558 0-1.116 0-0.558-0.558-1.675-0.558-2.233-0.558-0.558 0-0.558 0-1.117 0-1.117-0.558-2.792 0-3.908 0-2.233 0.558-4.467 0.558-6.7-0.558-2.792-1.117-5.025-2.233-7.258-3.35-1.675-1.117-2.792-2.233-4.467-3.35-3.35-2.792-6.7-6.141-10.608-8.933 0.558-2.792-0.558-3.35-2.791-3.35-1.117 0-2.233 0.558-3.35 1.117-0.558 0.558-0.558 0.558-1.117 1.116-1.675 1.117-2.792 2.792-4.466 3.909-2.792 1.675-3.908 1.117-6.142 0-0.558-0.558-1.117-1.117-1.675-1.675-1.117-1.117-2.233-2.792-2.791-3.909-1.117-2.233-3.35-2.233-5.583-2.233-1.117 0-2.792 0.558-3.908 0.558-2.233 0-4.467 1.117-5.584 2.792-1.117 1.675-2.233 3.35-3.908 5.025-0.558 0.558-1.675 1.117-2.233 2.233-1.117 1.117-2.233 1.117-3.35 0-0.558-0.558-1.117-0.558-1.675-1.117-0.558 0.558-1.117 1.117-1.117 1.675-0.558 1.117-1.117 2.233-1.674 3.909-0.558 1.675-1.675 3.35-2.792 4.466-0.558 0.558-0.558 0.558-1.117 1.117-0.558 1.117-2.233 1.675-3.35 1.675-1.117 1.117-2.233 2.792-2.791 3.908-0.558 1.117-1.117 2.233-1.675 3.908-0.558 0.558-0.558 1.675-1.117 2.233-0.558 1.117-0.558 1.675-0.558 2.792 0.558 1.675-0.558 2.233-2.233 2.791-1.117 0-1.117 0-1.675 1.117 0 1.675 0.558 2.792 1.116 4.467 0.558 0.558 1.117 1.675 1.117 2.233 0 1.117 0.558 1.675 1.675 2.233 0.558 0.558 1.117 1.117 1.675 1.117 0.558 0 0.558 0.558 1.117 0.558 0.558 0.558 1.117 0 1.116-0.558 0.558-1.675 1.117-3.35 1.117-5.025 0.558-2.233 0.558-3.908 1.116-6.142 0.558-1.117 1.117-1.675 1.675-2.233 0 0 0.558 0 1.117 0v0.559c-0.558 2.792-1.675 6.141-2.233 8.933-0.558 1.117-0.558 2.233-1.117 3.349 0 0.558-0.558 1.117-1.116 1.117-1.117 0.558-2.233 1.117-3.35 1.117-0.558 0-1.117 0-1.675 0-1.117-0.558-2.233-1.675-3.35-2.234-0.558-0.558-1.117-1.117-1.675-1.674-0.558-1.117-1.117-2.233-1.675-3.35-0.558-1.117-1.117-1.675-2.233-2.234-0.558-0.558-1.117-0.558-1.675-1.116-1.117-1.117-2.233-1.675-3.908-1.675-0.558 0-1.675 0-2.234 0-0.558 0-1.675 0.558-2.233 1.116-1.117 0.558-1.675 0.558-2.791 0-2.792-1.117-5.583-0.558-8.375 0.559-1.117 0.558-2.233 1.117-3.35 1.116-2.792 0-5.025 0-7.816 0-2.792 0-5.025-0.558-7.817-1.116-1.117 0-2.233 0-3.35 0-2.233 0.558-2.792 2.233-2.233 4.466 0.558 2.233 1.117 5.025 1.117 7.258 0 1.675 0 3.35 0 5.025 0 1.117 0 1.675 0 2.792 0 1.675-0.558 3.35-0.559 5.025-0.558 3.35-2.233 6.141-4.466 8.374-1.675 1.675-3.908 3.35-6.142 3.908-1.117 0.558-2.233 1.117-3.908 1.675-2.792 1.117-5.025 3.35-6.7 6.142-0.558 1.117-1.117 2.233-1.674 3.35-1.117 1.675-1.675 2.792-2.792 4.466-0.558 1.117-1.675 2.233-2.233 3.35-0.558 1.117-1.675 1.675-1.675 2.792-1.117 2.233-1.675 4.467-2.792 6.699-0.558 1.117-0.558 2.792-1.116 3.909-1.117 2.233-1.117 4.467-1.117 7.258 0 0.558 0 1.117 0 2.233 0 2.792-0.558 6.141-0.558 8.933 0 2.792 0 5.583 0.558 8.375 0 1.117 0 2.792 0 3.908 0 2.233 0.558 5.025 0.558 7.258 0 2.233 0 5.025 1.117 7.258v0.558c0.558 2.233 0.558 4.467 1.116 6.7 0 0.558 0 1.117 0.559 1.675 1.117 3.35 1.675 6.141 2.791 9.491 0.558 2.233 1.675 4.467 2.234 6.7 0.558 2.233 2.792 4.467 3.349 7.258v0c1.675 3.35 3.35 6.7 5.584 10.05 0.558 1.117 1.675 2.233 2.233 3.35 1.117 1.675 1.675 3.35 2.791 4.466 0.558 1.117 1.675 2.233 2.234 2.792 0.558 1.117 1.117 2.233 2.233 3.35 1.117 1.117 2.233 2.792 3.35 3.908 1.675 2.792 3.908 5.025 6.141 6.7 1.117 1.117 2.233 1.675 3.35 2.791 0.558 0.558 1.117 0.558 1.117 1.117 0.558 0.558 1.117 1.117 2.233 1.675 4.467 2.233 7.816 5.583 11.725 8.933 1.675 1.675 3.35 3.35 5.583 4.466 2.233 1.675 3.908 3.35 6.7 3.908 0 0 0.558 0 0.558 0.559 1.117 1.117 2.792 1.675 3.908 2.233 2.233 1.117 5.025 2.233 7.258 3.35 0.558 0.558 1.675 0.558 2.233 1.117 1.675 0.558 3.35 1.117 5.025 1.674 1.675 0.558 2.792 1.117 4.467 1.117h0.558c1.117 0.558 1.675 0.558 2.792 0 0.558 0 1.117 0 1.116 0.558 0 0.558 0.558 0.558 1.117 0.559 0.558 0 1.117 0 2.233 0 0.558-0.558 0.558-1.117 1.117-2.234 0.558 0.558 1.117 0.558 1.116 0.559 0.558 1.117 1.675 1.117 2.792 1.116h0.558c1.117 0 1.675 0 2.233-0.558 0-0.558 1.117-0.558 1.675-0.558 1.675 0.558 3.35 0.558 5.025 1.116 1.117 0.558 2.792 0.558 3.35-0.558 0.558-0.558 1.117-1.117 2.233-0.558 1.117 0.558 1.675 0.558 2.792 0 0.558 0 1.117 0 1.117 0 1.675 0.558 2.792 0.558 4.466 1.116 2.233 0.558 2.233 0.558 3.908-1.116 0.558-0.558 1.675-0.558 2.233 0 0.558 1.117 0.558 1.675 0.559 2.791 0.558 0 0.558 0 1.116-0.558 0-1.117 0.558-1.117 1.675-1.675 0.558 0.558 0.558 0.558 1.117 0.558 1.117 1.117 1.675 1.117 2.233-0.558 0-0.558 0-1.117 0.559-1.116 0.558 0 1.117 0.558 1.116 0.558 0.558 1.117 1.675 1.675 2.233 2.791 1.117 1.117 2.792 1.117 3.35 0 0.558-0.558 1.117-0.558 1.675-0.558 0-0.558 0-1.117 0-1.675 1.675 1.117 1.117 1.117 0.559 1.117zM89.417 34.559c1.675 0.558 2.792 0.558 3.349-0.558-1.117 0.558-2.233-0.558-3.349 0.558z" fill="#ffffff" fill-rule="nonzero" stroke="none" stroke-width="1" stroke-linecap="butt" stroke-linejoin="miter" stroke-miterlimit="10" stroke-dasharray="" stroke-dashoffset="0" font-family="none" font-weight="none" font-size="none" text-anchor="none" style="mix-blend-mode: normal" data-fill-palette-color="tertiary"></path></g><g transform="matrix(1,0,0,1,64,101.77857017331735)"><svg viewBox="0 0 192 156.4428596533653" height="156.4428596533653" width="192"><g><svg viewBox="0 0 192 156.4428596533653" height="156.4428596533653" width="192"><g><svg viewBox="0 0 192 156.4428596533653" height="156.4428596533653" width="192"><g transform="matrix(1,0,0,1,0,93.26768634636132)"><svg viewBox="0 0 192 63.175173307003995" height="63.175173307003995" width="192"><g id="textblocktransform"><svg viewBox="0 0 192 63.175173307003995" height="63.175173307003995" width="192" id="textblock"><g><svg viewBox="0 0 192 38.984771573604064" height="38.984771573604064" width="192"><g transform="matrix(1,0,0,1,0,0)"><svg width="192" viewBox="1.6500000953674316 -35.5 177.27999877929688 36" height="38.984771573604064" data-palette-color="#000000"><path d="M9.85 0.5Q5.85 0.5 3.75-1.78 1.65-4.05 1.65-8.3L1.65-8.3 1.65-26.7Q1.65-30.95 3.75-33.23 5.85-35.5 9.85-35.5L9.85-35.5Q13.85-35.5 15.95-33.23 18.05-30.95 18.05-26.7L18.05-26.7 18.05-23.7 12.85-23.7 12.85-27.05Q12.85-30.5 10-30.5L10-30.5Q7.15-30.5 7.15-27.05L7.15-27.05 7.15-7.9Q7.15-4.5 10-4.5L10-4.5Q12.85-4.5 12.85-7.9L12.85-7.9 12.85-14.75 10.1-14.75 10.1-19.75 18.05-19.75 18.05-8.3Q18.05-4.05 15.95-1.78 13.85 0.5 9.85 0.5L9.85 0.5ZM21.6 0L21.6-35 36.6-35 36.6-30 27.1-30 27.1-20.75 34.65-20.75 34.65-15.75 27.1-15.75 27.1-5 36.6-5 36.6 0 21.6 0ZM39.75 0L39.75-35 46.65-35 52-14.05 52.1-14.05 52.1-35 57-35 57 0 51.35 0 44.75-25.55 44.65-25.55 44.65 0 39.75 0ZM59.99 0L59.99-4.9 70.19-30 60.49-30 60.49-35 76.09-35 76.09-30.1 65.89-5 76.09-5 76.09 0 59.99 0ZM94.34 0.5Q90.34 0.5 88.29-1.78 86.24-4.05 86.24-8.3L86.24-8.3 86.24-10.3 91.44-10.3 91.44-7.9Q91.44-4.5 94.29-4.5L94.29-4.5Q95.69-4.5 96.41-5.33 97.14-6.15 97.14-8L97.14-8Q97.14-10.2 96.14-11.88 95.14-13.55 92.44-15.9L92.44-15.9Q89.04-18.9 87.69-21.33 86.34-23.75 86.34-26.8L86.34-26.8Q86.34-30.95 88.44-33.23 90.54-35.5 94.54-35.5L94.54-35.5Q98.49-35.5 100.51-33.23 102.54-30.95 102.54-26.7L102.54-26.7 102.54-25.25 97.34-25.25 97.34-27.05Q97.34-28.85 96.64-29.68 95.94-30.5 94.59-30.5L94.59-30.5Q91.84-30.5 91.84-27.15L91.84-27.15Q91.84-25.25 92.86-23.6 93.89-21.95 96.59-19.6L96.59-19.6Q100.04-16.6 101.34-14.15 102.64-11.7 102.64-8.4L102.64-8.4Q102.64-4.1 100.51-1.8 98.39 0.5 94.34 0.5L94.34 0.5ZM110.09 0L110.09-30 104.34-30 104.34-35 121.34-35 121.34-30 115.59-30 115.59 0 110.09 0ZM131.73 0.5Q127.68 0.5 125.53-1.8 123.38-4.1 123.38-8.3L123.38-8.3 123.38-26.7Q123.38-30.9 125.53-33.2 127.68-35.5 131.73-35.5L131.73-35.5Q135.78-35.5 137.93-33.2 140.08-30.9 140.08-26.7L140.08-26.7 140.08-8.3Q140.08-4.1 137.93-1.8 135.78 0.5 131.73 0.5L131.73 0.5ZM131.73-4.5Q134.58-4.5 134.58-7.95L134.58-7.95 134.58-27.05Q134.58-30.5 131.73-30.5L131.73-30.5Q128.88-30.5 128.88-27.05L128.88-27.05 128.88-7.95Q128.88-4.5 131.73-4.5L131.73-4.5ZM143.78 0L143.78-35 151.93-35Q156.18-35 158.13-33.02 160.08-31.05 160.08-26.95L160.08-26.95 160.08-24.8Q160.08-19.35 156.48-17.9L156.48-17.9 156.48-17.8Q158.48-17.2 159.31-15.35 160.13-13.5 160.13-10.4L160.13-10.4 160.13-4.25Q160.13-2.75 160.23-1.83 160.33-0.9 160.73 0L160.73 0 155.13 0Q154.83-0.85 154.73-1.6 154.63-2.35 154.63-4.3L154.63-4.3 154.63-10.7Q154.63-13.1 153.86-14.05 153.08-15 151.18-15L151.18-15 149.28-15 149.28 0 143.78 0ZM149.28-20L151.28-20Q152.93-20 153.76-20.85 154.58-21.7 154.58-23.7L154.58-23.7 154.58-26.4Q154.58-28.3 153.91-29.15 153.23-30 151.78-30L151.78-30 149.28-30 149.28-20ZM163.93 0L163.93-35 178.93-35 178.93-30 169.43-30 169.43-20.75 176.98-20.75 176.98-15.75 169.43-15.75 169.43-5 178.93-5 178.93 0 163.93 0Z" opacity="1" transform="matrix(1,0,0,1,0,0)" fill="#ffffff" class="wordmark-text-0" data-fill-palette-color="primary" id="text-0"></path></svg></g></svg></g><g transform="matrix(1,0,0,1,0,48.18814050761422)"><svg viewBox="0 0 192 14.987032799389779" height="14.987032799389779" width="192"><g transform="matrix(1,0,0,1,0,0)"><svg width="192" viewBox="2.5399999618530273 -29.540000915527344 384.04998779296875 29.98000144958496" height="14.987032799389779" data-palette-color="#000000"><path d="M13.09 0L2.83 0 2.73-1.66 5.47-2.34Q5.52-2.54 5.54-3.27 5.57-4 5.59-5.42 5.62-6.84 5.62-9.08L5.62-9.08 5.66-20.26Q5.66-22.27 5.64-23.54 5.62-24.8 5.59-25.49 5.57-26.17 5.52-26.32L5.52-26.32 2.54-27 2.64-28.66 18.36-28.66Q18.99-28.66 19.56-28.66 20.12-28.66 20.83-28.71 21.53-28.76 22.51-28.86L22.51-28.86 23.44-22.61 21.39-22.31 19.78-26.37Q19.53-26.42 19.07-26.44 18.6-26.46 18.07-26.46L18.07-26.46 12.16-26.46Q11.43-26.46 10.52-26.44 9.62-26.42 9.08-26.37L9.08-26.37Q9.08-26.17 9.06-25.56 9.03-24.95 9.03-24.1 9.03-23.24 9.03-22.22 9.03-21.19 9.03-20.21L9.03-20.21 9.08-9.72Q9.08-6.98 9.11-5.47 9.13-3.96 9.16-3.25 9.18-2.54 9.23-2.34L9.23-2.34 13.18-1.76 13.09 0ZM19.87-9.72L18.02-9.72 17.38-13.23Q17.14-13.33 16.53-13.38 15.92-13.43 15.09-13.43L15.09-13.43 10.64-13.43Q10.25-13.43 9.69-13.43 9.13-13.43 8.2-13.38L8.2-13.38 8.2-15.82Q8.84-15.77 9.45-15.75 10.06-15.72 10.64-15.72L10.64-15.72 15.09-15.72Q16.06-15.72 16.58-15.77 17.09-15.82 17.38-15.92L17.38-15.92 18.02-19.29 19.87-19.29 19.87-9.72ZM36.52 0L26.9 0 26.8-1.66 29.78-2.34Q29.83-2.59 29.86-3.42 29.88-4.25 29.9-5.74 29.93-7.23 29.93-9.42L29.93-9.42 29.93-19.19Q29.93-21.44 29.9-22.95 29.88-24.46 29.86-25.29 29.83-26.12 29.78-26.32L29.78-26.32 26.8-27 26.9-28.66 36.52-28.66 36.62-27 33.64-26.32Q33.59-26.17 33.52-25.44 33.44-24.71 33.42-23.22 33.4-21.73 33.4-19.19L33.4-19.19 33.4-9.42Q33.4-6.98 33.42-5.47 33.44-3.96 33.52-3.25 33.59-2.54 33.64-2.34L33.64-2.34 36.62-1.66 36.52 0ZM64.11-6.35L63.52-6.35 63.52-18.31Q63.52-21.34 63.47-23.02 63.42-24.71 63.37-25.46 63.33-26.22 63.28-26.32L63.28-26.32 60-27 60.1-28.66 69.09-28.66 69.23-27 66.25-26.32Q66.25-26.22 66.18-25.46 66.11-24.71 66.06-23 66.01-21.29 66.01-18.31L66.01-18.31 66.01-6.05Q66.01-4.69 66.01-3.1 66.01-1.51 66.06 0.2L66.06 0.2 64.11 0.2 46.58-24.41 47.21-24.41 47.21-10.35Q47.21-7.37 47.29-5.69 47.36-4 47.43-3.25 47.5-2.49 47.5-2.34L47.5-2.34 50.78-1.66 50.68 0 41.6 0 41.5-1.66 44.43-2.34Q44.48-2.49 44.53-3.2 44.58-3.91 44.62-5.62 44.67-7.32 44.67-10.35L44.67-10.35 44.67-19.24Q44.67-21.68 44.65-23.1 44.62-24.51 44.58-25.24 44.53-25.98 44.43-26.32L44.43-26.32 41.5-27 41.6-28.66 47.99-28.66 64.11-6.35ZM74.16-27L74.26-28.66 85.59-28.66Q93.25-28.66 97.55-24.98 101.85-21.29 101.85-14.65L101.85-14.65Q101.85-10.35 99.85-7.03 97.84-3.71 94.33-1.86 90.81 0 86.22 0L86.22 0 74.26 0 74.16-1.66 77.09-2.34Q77.19-2.83 77.26-4.86 77.34-6.88 77.34-9.42L77.34-9.42 77.34-19.19Q77.34-22.02 77.26-24 77.19-25.98 77.09-26.32L77.09-26.32 74.16-27ZM80.9-26.22L80.9-26.22Q80.9-25.68 80.88-24.98 80.85-24.27 80.83-22.92 80.8-21.58 80.8-19.19L80.8-19.19 80.8-9.42Q80.8-7.91 80.83-6.64 80.85-5.37 80.9-4.39 80.95-3.42 81-2.73L81-2.73Q82.71-2.54 83.98-2.42 85.25-2.29 86.52-2.29L86.52-2.29Q91.98-2.29 94.82-5.15 97.65-8.01 97.65-13.23L97.65-13.23Q97.65-16.36 96.87-18.82 96.09-21.29 94.52-23.02 92.96-24.76 90.59-25.66 88.22-26.56 85.05-26.56L85.05-26.56Q84.07-26.56 83.05-26.49 82.02-26.42 80.9-26.22ZM140.03-27L137.59-26.32 127.67-11.13 128.65-13.96 128.65-9.42Q128.65-7.32 128.67-6.01 128.7-4.69 128.72-3.93 128.75-3.17 128.77-2.83 128.8-2.49 128.8-2.34L128.8-2.34 132.21-1.71 132.12 0 121.72 0 121.57-1.71 124.99-2.34Q125.04-2.49 125.09-2.83 125.13-3.17 125.16-3.93 125.18-4.69 125.21-6.01 125.23-7.32 125.23-9.42L125.23-9.42 125.23-13.96 126.01-11.13 116.39-26.32 113.95-27 114-28.66 123.38-28.66 123.47-27 120.54-26.32 128.01-14.55 127.48-14.55 134.56-26.32 131.14-27 131.24-28.66 139.93-28.66 140.03-27ZM155.36 0.44L155.36 0.44Q151.16 0.44 147.93-1.42 144.71-3.27 142.88-6.59 141.05-9.91 141.05-14.26L141.05-14.26Q141.05-18.51 142.93-21.88 144.81-25.24 148.08-27.17 151.35-29.1 155.5-29.1L155.5-29.1Q159.56-29.1 162.61-27.25 165.66-25.39 167.39-22.12 169.13-18.85 169.13-14.5L169.13-14.5Q169.13-11.38 168.08-8.67 167.03-5.96 165.17-3.91 163.32-1.86 160.8-0.71 158.29 0.44 155.36 0.44ZM155.84-1.9L155.84-1.9Q158.63-1.9 160.65-3.32 162.68-4.74 163.83-7.32 164.98-9.91 164.98-13.33L164.98-13.33Q164.98-17.38 163.71-20.41 162.44-23.44 160.17-25.17 157.9-26.9 154.92-26.9L154.92-26.9Q150.52-26.9 147.96-23.71 145.4-20.51 145.4-15.04L145.4-15.04Q145.4-11.23 146.74-8.25 148.08-5.27 150.47-3.59 152.87-1.9 155.84-1.9ZM174.05-27L174.2-28.66 183.77-28.66 183.92-27 180.94-26.27Q180.94-26.17 180.89-25.59 180.84-25 180.82-23.54 180.79-22.07 180.79-19.19L180.79-19.19 180.79-10.99Q180.84-7.86 181.84-5.98 182.84-4.1 184.58-3.25 186.31-2.39 188.51-2.39L188.51-2.39Q190.66-2.39 192.27-3.27 193.88-4.15 194.81-6.13 195.73-8.11 195.73-11.38L195.73-11.38 195.73-18.31Q195.73-20.41 195.71-22.05 195.69-23.68 195.64-24.78 195.59-25.88 195.49-26.27L195.49-26.27 192.07-27 192.17-28.66 201.25-28.66 201.4-27 198.47-26.27Q198.47-26.12 198.42-25.46 198.37-24.8 198.35-23.14 198.32-21.48 198.32-18.31L198.32-18.31 198.32-11.28Q198.32-7.13 196.98-4.54 195.64-1.95 193.32-0.76 191 0.44 188.17 0.44L188.17 0.44Q183.04 0.44 180.13-2.42 177.23-5.27 177.23-10.45L177.23-10.45 177.23-19.19Q177.23-22.02 177.18-23.49 177.13-24.95 177.11-25.54 177.08-26.12 177.03-26.27L177.03-26.27 174.05-27ZM215.85 0L206.47 0 206.33-1.66 209.31-2.44Q209.31-2.73 209.33-3.44 209.36-4.15 209.36-5.08 209.36-6.01 209.38-7.13 209.4-8.25 209.4-9.42L209.4-9.42 209.4-19.19Q209.4-21.48 209.38-23 209.36-24.51 209.33-25.32 209.31-26.12 209.21-26.32L209.21-26.32 206.28-27 206.38-28.66 216.48-28.66Q220.83-28.66 223.17-26.88 225.52-25.1 225.52-21.73L225.52-21.73Q225.52-19.34 224.22-17.46 222.93-15.58 220.63-14.5 218.34-13.43 215.36-13.43L215.36-13.43 212.19-13.43 212.19-15.48 215.21-15.48Q218.39-15.48 220.12-16.99 221.86-18.51 221.86-21.24L221.86-21.24Q221.86-23.93 220.37-25.32 218.88-26.71 216-26.71L216-26.71 212.92-26.71Q212.87-26.56 212.85-26.39 212.82-26.22 212.82-25.66 212.82-25.1 212.82-23.75 212.82-22.41 212.82-20.02L212.82-20.02 212.82-9.42Q212.82-7.08 212.85-5.71 212.87-4.35 212.92-3.61 212.97-2.88 213.02-2.44L213.02-2.44 215.95-1.66 215.85 0ZM228.94 0.44L228.94 0.44Q226.98 0.44 225.44-0.34 223.91-1.12 222.39-3.03 220.88-4.93 218.93-8.2L218.93-8.2 215.41-14.26 218.58-14.99 223.71-7.32Q225.18-5.13 226.3-3.91 227.42-2.69 228.5-2.1 229.57-1.51 230.84-1.27L230.84-1.27 230.79 0.29Q230.4 0.39 229.89 0.42 229.37 0.44 228.94 0.44ZM250.9 0.44L250.9 0.44Q248.75 0.44 246.56-0.07 244.36-0.59 242.99-1.37L242.99-1.37 242.75-7.42 244.56-7.62 245.82-3.47Q247.09-2.69 248.53-2.25 249.98-1.81 251.68-1.81L251.68-1.81Q254.13-1.81 255.69-3.03 257.25-4.25 257.25-6.4L257.25-6.4Q257.25-8.15 256.2-9.3 255.15-10.45 253.52-11.33 251.88-12.21 250.05-13.04 248.22-13.87 246.58-14.94 244.95-16.02 243.9-17.53 242.85-19.04 242.85-21.34L242.85-21.34Q242.85-23.63 244.14-25.39 245.43-27.15 247.68-28.15 249.93-29.15 252.81-29.15L252.81-29.15Q254.13-29.15 255.27-29.03 256.42-28.91 257.42-28.66 258.42-28.42 259.2-28.03L259.2-28.03 259.55-22.27 257.74-22.07 256.42-25.98Q254.91-27 252.27-27L252.27-27Q249.68-27 248.12-25.73 246.56-24.46 246.56-22.46L246.56-22.46Q246.56-20.65 247.61-19.41 248.66-18.16 250.29-17.26 251.93-16.36 253.76-15.53 255.59-14.7 257.23-13.65 258.86-12.6 259.91-11.13 260.96-9.67 260.96-7.47L260.96-7.47Q260.96-5.22 259.67-3.44 258.37-1.66 256.1-0.61 253.83 0.44 250.9 0.44ZM285.13-25.93L286.35-22.12 277.51 0.15 275.56 0.15 265.6-26.32 263.16-27 263.25-28.66 271.99-28.66 272.09-27 269.65-26.37 277.71-4.39 277.12-4.39 285.13-25.93ZM294.99 0.15L293.04 0.15 283.27-26.32 280.83-27 280.93-28.66 290.06-28.66 290.16-27 287.23-26.37 295.14-4.39 294.45-4.39 302.32-26.32 298.9-27 299-28.66 307.74-28.66 307.83-27 305.39-26.32 294.99 0.15ZM314.33 0L306.46 0 306.37-1.66 308.76-2.34 318.82-28.03 321.31-29.54 331.76-2.34 334.2-1.66 334.05 0 325.07 0 324.97-1.66 327.95-2.34 325.02-9.86 324.48-11.33 318.96-25.05 320.09-25.98 314.67-11.28 314.13-9.81 311.44-2.34 314.42-1.66 314.33 0ZM313.01-9.23L313.01-9.23 313.01-11.62Q313.93-11.57 315.67-11.52 317.4-11.47 319.89-11.47L319.89-11.47Q322.28-11.47 324.02-11.52 325.75-11.57 326.63-11.62L326.63-11.62 326.63-9.23Q324.73-9.28 322.99-9.3 321.26-9.33 319.89-9.33L319.89-9.33Q318.52-9.33 316.84-9.3 315.16-9.28 313.01-9.23ZM352.46 0.44L352.46 0.44Q348.11 0.44 344.52-1.17 340.93-2.78 338.81-6.05 336.69-9.33 336.69-14.16L336.69-14.16Q336.69-17.14 337.74-19.8 338.79-22.46 340.81-24.56 342.84-26.66 345.82-27.88 348.8-29.1 352.65-29.1L352.65-29.1Q354.61-29.1 356.9-28.71 359.2-28.32 360.91-27.59L360.91-27.59 361.25-21.39 359.34-21.19 357.93-25.44Q357.05-26.17 355.39-26.49 353.73-26.81 352.26-26.81L352.26-26.81Q348.26-26.81 345.79-25.15 343.33-23.49 342.18-20.78 341.03-18.07 341.03-14.94L341.03-14.94Q341.03-10.69 342.59-7.76 344.16-4.83 346.79-3.34 349.43-1.86 352.8-1.86L352.8-1.86Q354.36-1.86 356.27-2.32 358.17-2.78 359.59-3.86L359.59-3.86 358.37-1.12 358.37-6.25Q358.37-8.01 358.32-9.25 358.27-10.5 358.17-11.13L358.17-11.13 354.9-11.62 355-13.38 363.74-13.38 363.83-11.72 361.74-11.18Q361.74-10.99 361.74-10.08 361.74-9.18 361.74-7.81L361.74-7.81Q361.74-5.86 361.78-4.64 361.83-3.42 361.88-2.25L361.88-2.25Q360.03-1.03 357.39-0.29 354.75 0.44 352.46 0.44ZM376.53 0.44L376.53 0.44Q374.38 0.44 372.18-0.07 369.98-0.59 368.62-1.37L368.62-1.37 368.37-7.42 370.18-7.62 371.45-3.47Q372.72-2.69 374.16-2.25 375.6-1.81 377.31-1.81L377.31-1.81Q379.75-1.81 381.31-3.03 382.88-4.25 382.88-6.4L382.88-6.4Q382.88-8.15 381.83-9.3 380.78-10.45 379.14-11.33 377.5-12.21 375.67-13.04 373.84-13.87 372.21-14.94 370.57-16.02 369.52-17.53 368.47-19.04 368.47-21.34L368.47-21.34Q368.47-23.63 369.76-25.39 371.06-27.15 373.3-28.15 375.55-29.15 378.43-29.15L378.43-29.15Q379.75-29.15 380.9-29.03 382.05-28.91 383.05-28.66 384.05-28.42 384.83-28.03L384.83-28.03 385.17-22.27 383.36-22.07 382.05-25.98Q380.53-27 377.89-27L377.89-27Q375.31-27 373.74-25.73 372.18-24.46 372.18-22.46L372.18-22.46Q372.18-20.65 373.23-19.41 374.28-18.16 375.92-17.26 377.55-16.36 379.38-15.53 381.22-14.7 382.85-13.65 384.49-12.6 385.54-11.13 386.59-9.67 386.59-7.47L386.59-7.47Q386.59-5.22 385.29-3.44 384-1.66 381.73-0.61 379.46 0.44 376.53 0.44Z" opacity="1" transform="matrix(1,0,0,1,0,0)" fill="#ffffff" class="slogan-text-1" data-fill-palette-color="secondary" id="text-1"></path></svg></g></svg></g></svg></g></svg></g><g transform="matrix(1,0,0,1,36.67199999999999,0)"><svg viewBox="0 0 118.65600000000002 84.06431741235116" height="84.06431741235116" width="118.65600000000002"><g><svg xmlns="http://www.w3.org/2000/svg" xmlns:xlink="http://www.w3.org/1999/xlink" version="1.1" x="0" y="0" viewBox="4.499998092651367 17.899999618530273 90.9000015258789 64.4000015258789" style="enable-background:new 0 0 100 100;" xml:space="preserve" height="84.06431741235116" width="118.65600000000002" class="icon-icon-0" data-fill-palette-color="accent" id="icon-0"><g fill="#000000" data-fill-palette-color="accent"><rect x="39" y="54" transform="matrix(0.9772 -0.2123 0.2123 0.9772 -10.6453 11.9408)" width="22.5" height="3" fill="#ffffff" data-fill-palette-color="accent"></rect><path d="M79.9 55.9c0.6 0.1 1.3 0.2 1.9 0.2 7.5 0 13.6-6.1 13.6-13.6 0-6.9-4.9-8.1-10.1-8.3v0h-0.4c-0.3 0-0.7 0-1 0l1.5-8v-0.2c0-4.5-3.7-8.1-8.1-8.1H12.7c-4.5 0-8.1 3.7-8.1 8.1v0.2L9.9 55c1.1 7.4 4.5 11.9 8.2 14.7h-7.3c-3.5 0-6.3 2.8-6.3 6.3s2.8 6.3 6.3 6.3h68.4c3.5 0 6.3-2.8 6.3-6.3s-2.8-6.3-6.3-6.3h-6.8C75.7 67.2 78.7 62.9 79.9 55.9zM91.8 42.4c0 5.5-4.5 10-10 10-0.4 0-0.8 0-1.2-0.1l2.7-14.6C89.6 37.8 91.8 38.4 91.8 42.4zM12.7 21.4h64.5c2.4 0 4.4 1.9 4.5 4.3L80.2 34l0 0h-5c-0.2-5.6-2.5-6.4-10.7-6.4-7 0-13 0.6-14.9 4.3h-6.2c-1.9-3.7-7.9-4.3-14.9-4.3-8.2 0-10.5 0.8-10.7 6.4H9.8l-1.5-8.3C8.4 23.4 10.3 21.4 12.7 21.4zM68 33.5C68 33.5 68 33.6 68 33.5c-0.1 0.1-0.1 0.1-0.1 0.2-0.3 0.4-0.8 1-1.2 1.6-0.4 0.6-0.9 1.1-1.2 1.6 0 0 0 0-0.1 0.1 0 0 0 0.1-0.1 0.1-0.1 0-0.2 0-0.3 0-0.2 0-0.4 0-0.5 0-0.1 0-0.3 0-0.4 0-0.1 0-0.1 0-0.1 0s0 0 0-0.1c0-0.1-0.1-0.2-0.1-0.3 0-0.1-0.1-0.3-0.2-0.5 0-0.1-0.1-0.2-0.1-0.3 0-0.1 0-0.1 0-0.1 0 0 0 0 0.1-0.1 0.3-0.4 0.8-1 1.2-1.6 0.4-0.6 0.9-1.1 1.2-1.6 0 0 0 0 0.1-0.1 0 0 0-0.1 0.1-0.1 0.1 0 0.2 0 0.3 0 0.2 0 0.4 0 0.5 0 0.1 0 0.3 0 0.3 0 0.1 0 0.1 0 0.1 0s0 0 0 0.1c0 0.1 0.1 0.2 0.1 0.3 0 0.1 0.1 0.3 0.1 0.5C67.9 33.3 68 33.4 68 33.5zM62.1 33.8c0 0.1 0 0.1-0.1 0.1 0 0-0.1 0.1-0.1 0.1-0.5 0.6-1.2 1.5-1.8 2.3-0.7 0.9-1.3 1.7-1.8 2.3 0 0-0.1 0.1-0.1 0.1 0 0.1 0 0.1-0.1 0.1-0.1 0-0.2 0-0.4 0.1-0.2 0-0.4 0.1-0.6 0.1-0.2 0-0.3 0-0.4 0-0.1 0-0.1 0-0.1 0s0-0.1 0-0.1c0-0.1-0.1-0.2-0.1-0.4 0-0.2-0.1-0.4-0.1-0.6 0-0.1 0-0.2 0-0.4 0-0.1 0-0.1 0.1-0.1 0 0 0.1-0.1 0.1-0.1 0.5-0.6 1.2-1.5 1.8-2.3 0.7-0.9 1.3-1.7 1.8-2.3 0 0 0.1-0.1 0.1-0.1 0-0.1 0-0.1 0.1-0.1 0.1 0 0.2 0 0.4-0.1 0.2 0 0.4-0.1 0.6-0.1 0.2 0 0.3 0 0.4 0 0.1 0 0.1 0 0.1 0s0 0.1 0 0.1c0 0.1 0 0.2 0.1 0.4 0 0.2 0 0.4 0.1 0.6C62.1 33.5 62.1 33.6 62.1 33.8zM35.2 33.5C35.3 33.5 35.2 33.6 35.2 33.5c-0.1 0.1-0.1 0.1-0.1 0.2-0.3 0.4-0.8 1-1.2 1.6-0.4 0.6-0.9 1.1-1.2 1.6 0 0 0 0-0.1 0.1 0 0 0 0.1-0.1 0.1-0.1 0-0.2 0-0.3 0-0.2 0-0.4 0-0.5 0-0.1 0-0.3 0-0.4 0-0.1 0-0.1 0-0.1 0s0 0 0-0.1c0-0.1-0.1-0.2-0.1-0.3 0-0.1-0.1-0.3-0.2-0.5 0-0.1-0.1-0.2-0.1-0.3 0-0.1 0-0.1 0-0.1 0 0 0 0 0.1-0.1 0.3-0.4 0.8-1 1.2-1.6 0.4-0.6 0.9-1.1 1.2-1.6 0 0 0 0 0.1-0.1 0 0 0-0.1 0.1-0.1 0.1 0 0.2 0 0.3 0 0.2 0 0.4 0 0.5 0 0.1 0 0.3 0 0.3 0 0.1 0 0.1 0 0.1 0s0 0 0 0.1c0 0.1 0.1 0.2 0.1 0.3 0 0.1 0.1 0.3 0.1 0.5C35.2 33.3 35.2 33.4 35.2 33.5zM29.3 33.8c0 0.1 0 0.1-0.1 0.1 0 0-0.1 0.1-0.1 0.1-0.5 0.6-1.2 1.5-1.8 2.3-0.7 0.9-1.3 1.7-1.8 2.3 0 0-0.1 0.1-0.1 0.1 0 0.1 0 0.1-0.1 0.1-0.1 0-0.2 0-0.4 0.1-0.2 0-0.4 0.1-0.6 0.1-0.2 0-0.3 0-0.4 0-0.1 0-0.1 0-0.1 0s0-0.1 0-0.1c0-0.1-0.1-0.2-0.1-0.4 0-0.2-0.1-0.4-0.1-0.6 0-0.1 0-0.2 0-0.4 0-0.1 0-0.1 0.1-0.1 0 0 0.1-0.1 0.1-0.1 0.5-0.6 1.2-1.5 1.8-2.3 0.7-0.9 1.3-1.7 1.8-2.3 0 0 0.1-0.1 0.1-0.1 0-0.1 0-0.1 0.1-0.1 0.1 0 0.2 0 0.4-0.1 0.2 0 0.4-0.1 0.6-0.1 0.2 0 0.3 0 0.4 0 0.1 0 0.1 0 0.1 0s0 0.1 0 0.1c0 0.1 0 0.2 0.1 0.4 0 0.2 0 0.4 0.1 0.6C29.3 33.5 29.3 33.6 29.3 33.8zM79.2 73.4c1.4 0 2.6 1.2 2.6 2.6 0 1.4-1.2 2.6-2.6 2.6H10.8c-1.4 0-2.6-1.2-2.6-2.6 0-1.4 1.2-2.6 2.6-2.6h17.6c0 0 0.1 0 0.1 0h33c0.1 0 0.2 0 0.3 0H79.2zM61.7 69.7H28.4c-3.7-0.1-13.1-2.9-14.9-15.2l-3.2-17.4h7.5c0.5 5.4 3 9.6 10.6 9.6C37.1 46.6 44 41.4 44 35h4.9c0 6.4 7 11.7 15.6 11.7 7.7 0 10.2-4.1 10.6-9.6h4.5l-3.2 17.8C74.2 68.3 64.9 69.6 61.7 69.7z" fill="#ffffff" data-fill-palette-color="accent"></path></g></svg></g></svg></g><g></g></svg></g></svg></g></svg></g></svg></g><defs></defs></svg><rect width="320" height="360" fill="none" stroke="none" visibility="hidden"></rect></g></svg></g></svg>